<svg xmlns="http://www.w3.org/2000/svg" width="228" height="256" viewBox="0 0 228 256"><style type="text/css">.st0{fill:#AECFE8;} .st1{fill:#FFFFFF;} .st2{fill:none;stroke:#AECFE8;stroke-width:14;stroke-linecap:round;stroke-linejoin:round;stroke-miterlimit:10;}</style><path class="st0" d="M198.8 253h-169.6c-13.9 0-25.3-11.3-25.3-25.3v-199.4c0-14 11.3-25.3 25.3-25.3h169.6c13.9 0 25.3 11.3 25.3 25.3v199.4c0 14-11.3 25.3-25.3 25.3z"/><path class="st1" d="M29.2 237c-5.1 0-9.2-4.2-9.2-9.3v-199.4c0-5.1 4.1-9.3 9.2-9.3h169.6c5.1 0 9.2 4.2 9.2 9.3v199.4c0 5.1-4.1 9.3-9.2 9.3h-169.6z"/><path class="st0" d="M52.5 104h22.5v48h-22.5zM113.5 182l-41-30v-48l41-30z"/><path class="st2" d="M137 153.7c14.2-14.2 14.2-37.2 0-51.4M151 182c29.8-29.8 29.8-78.2 0-108"/></svg>