<svg xmlns="http://www.w3.org/2000/svg" width="228" height="256" viewBox="0 0 228 256"><style type="text/css">.st0{fill:#AECFE8;} .st1{fill:#FFFFFF;}</style><path class="st0" d="M198.8 253h-169.6c-13.9 0-25.3-11.3-25.3-25.3v-199.4c0-14 11.3-25.3 25.3-25.3h169.6c13.9 0 25.3 11.3 25.3 25.3v199.4c0 14-11.3 25.3-25.3 25.3z"/><path class="st1" d="M29.2 237c-5.1 0-9.2-4.2-9.2-9.3v-199.4c0-5.1 4.1-9.3 9.2-9.3h169.6c5.1 0 9.2 4.2 9.2 9.3v199.4c0 5.1-4.1 9.3-9.2 9.3h-169.6z"/><path class="st0" d="M43 43.5h142v18.9h-142zM43 70.8h142v18.9h-142zM43 98.2h91.8v18.9h-91.8z"/></svg>