<svg xmlns="http://www.w3.org/2000/svg" width="228" height="256" viewBox="0 0 228 256"><style type="text/css">.st0{fill:#AECFE8;} .st1{fill:#FFFFFF;}</style><path class="st0" d="M198.8 253h-169.6c-13.9 0-25.3-11.3-25.3-25.3v-199.4c0-14 11.3-25.3 25.3-25.3h169.6c13.9 0 25.3 11.3 25.3 25.3v199.4c0 14-11.3 25.3-25.3 25.3z"/><path class="st1" d="M29.2 237c-5.1 0-9.2-4.2-9.2-9.3v-199.4c0-5.1 4.1-9.3 9.2-9.3h169.6c5.1 0 9.2 4.2 9.2 9.3v199.4c0 5.1-4.1 9.3-9.2 9.3h-169.6z"/><path class="st0" d="M26.1 158.5l65.2-44 26.6 22 32.3-11 51.8 30v74.5h-176zM137.3 33.5c-7.6 0-14.7 2.2-20.7 6 20.6 1 37 18.1 37 39 0 13.9-7.3 26.1-18.3 33h2c21.5 0 39-17.5 39-39s-17.5-39-39-39z"/></svg>