<svg xmlns="http://www.w3.org/2000/svg" width="256" height="256" viewBox="0 0 256 256"><style type="text/css">.st0{fill:#003366;} .st1{fill:#FFFFFF;}</style><path class="st0" d="M68.7 221.4c-33.8 0-61.4-23.8-61.4-53s27.5-53 61.4-53 61.4 23.8 61.4 53-27.5 53-61.4 53zM123.1 242.1c-33.8 0-61.4-23.8-61.4-53s27.5-53 61.4-53 61.4 23.8 61.4 53-27.6 53-61.4 53zM186.3 230.3c-33.8 0-61.4-23.8-61.4-53s27.5-53 61.4-53 61.4 23.8 61.4 53-27.6 53-61.4 53zM172.3 244.3c-33.8 0-61.4-23.8-61.4-53s27.5-53 61.4-53 61.4 23.8 61.4 53-27.6 53-61.4 53z"/><ellipse class="st1" cx="68.7" cy="168.4" rx="49" ry="40.7"/><ellipse class="st1" cx="123.1" cy="189.2" rx="49" ry="40.7"/><ellipse class="st1" cx="186.3" cy="177.3" rx="49" ry="40.7"/><ellipse class="st1" cx="172.3" cy="191.3" rx="49" ry="40.7"/><path class="st0" d="M188.3 189.6h-119.6c-9.8 0-17.8-8-17.8-17.8v-140.7c0-9.8 8-17.8 17.8-17.8h119.6c9.8 0 17.8 8 17.8 17.8v140.6c0 9.9-8 17.9-17.8 17.9z"/><path class="st1" d="M68.3 178c-3.6 0-6.3-2.6-6.3-6.2v-140.7c0-3.6 2.7-7.1 6.3-7.1h119.6c3.6 0 7.1 3.5 7.1 7.1v140.6c0 3.6-3.5 6.2-7.1 6.2h-119.6z"/><path class="st0" d="M73.5 37.5h110v14.7h-110zM73.5 58.6h110v14.7h-110zM73.5 79.8h71.1v14.7h-71.1z"/></svg>